<svg width="20" height="18" viewBox="0 0 20 18" fill="none" xmlns="http://www.w3.org/2000/svg">
<path d="M17.4786 14.6903C19.0455 13.1302 20 11.0794 20 8.83453C20 6.49886 18.9669 4.3737 17.2855 2.79232V2.79202C17.2841 2.79019 17.2821 2.78958 17.281 2.78806C15.5297 1.14331 13.0759 0.0904778 10.3466 0.00792061L10.3462 0.00761597L10.1514 0.00304639C10.101 0.00152319 10.0507 0 10 0C9.94931 0 9.89897 0.00152319 9.84862 0.00304639L9.65448 0.00761597L9.65414 0.00792061C6.92483 0.0904778 4.47103 1.14331 2.71966 2.78806C2.71828 2.78958 2.71621 2.79019 2.71517 2.79202C2.71517 2.79202 2.71517 2.79232 2.71483 2.79263C1.0331 4.3737 0 6.49886 0 8.83453C0 11.0794 0.954483 13.1302 2.52138 14.6903C2.52345 14.693 2.52345 14.6961 2.52586 14.6988C2.53207 14.7064 2.54103 14.7101 2.54759 14.7171C4.30828 16.456 6.83448 17.5761 9.65379 17.6614L9.65414 17.6617L9.84828 17.6663C9.89897 17.6675 9.94931 17.6691 10 17.6691C10.0507 17.6691 10.101 17.6675 10.1514 17.666L10.3455 17.6614L10.3459 17.6611C13.1683 17.5755 15.6972 16.4532 17.4579 14.7107C17.4624 14.7055 17.4697 14.704 17.4738 14.6985C17.4766 14.6961 17.4766 14.693 17.4786 14.6903ZM0.698276 9.13917H4.83724C4.87621 10.4305 5.16172 11.6853 5.67 12.8609C4.68931 13.1744 3.75172 13.5948 2.8731 14.1194C1.58103 12.7616 0.776897 11.031 0.698276 9.13917ZM3.06138 3.35804C3.91931 3.85094 4.83276 4.24575 5.78552 4.54064C5.20207 5.7918 4.87931 7.14074 4.83724 8.52989H0.698276C0.78069 6.54761 1.65931 4.74262 3.06138 3.35804ZM19.3017 8.52989H15.1628C15.1207 7.14074 14.7979 5.7918 14.2145 4.54064C15.1672 4.24575 16.0807 3.85094 16.9386 3.35804C18.3407 4.74262 19.2193 6.54761 19.3017 8.52989ZM9.65517 4.55831C8.65828 4.53333 7.67966 4.40203 6.73414 4.16746C7.4331 2.90077 8.42 1.75746 9.65517 0.805465V4.55831ZM9.65517 5.16759V8.52989H5.5269C5.56931 7.20532 5.88379 5.92066 6.44621 4.72952C7.48276 4.99486 8.55897 5.1417 9.65517 5.16759ZM10.3448 5.16759C11.441 5.1417 12.5172 4.99516 13.5541 4.72952C14.1166 5.92066 14.431 7.20532 14.4734 8.52989H10.3448V5.16759ZM10.3448 4.55831V0.805465C11.58 1.75746 12.5669 2.90077 13.2659 4.16746C12.3203 4.40203 11.3417 4.53333 10.3448 4.55831ZM13.9341 3.98224C13.2717 2.75607 12.3524 1.63896 11.2141 0.681477C13.2334 0.914831 15.0503 1.72151 16.4497 2.91083C15.6552 3.35621 14.8124 3.71446 13.9341 3.98224ZM6.06586 3.98224C5.18759 3.71446 4.34483 3.35621 3.55069 2.91083C4.94966 1.72151 6.7669 0.914831 8.78621 0.681477C7.64759 1.63896 6.72828 2.75607 6.06586 3.98224ZM5.5269 9.13917H9.65517V12.1971C8.51483 12.2239 7.39759 12.3811 6.32379 12.6666C5.83862 11.5531 5.56586 10.3635 5.5269 9.13917ZM9.65517 12.8064V16.8636C8.3331 15.8446 7.29655 14.6065 6.59172 13.2332C7.58034 12.9758 8.60724 12.8326 9.65517 12.8064ZM10.3448 16.8636V12.8064C11.3928 12.8323 12.4197 12.9758 13.4083 13.2329C12.7034 14.6065 11.6669 15.8446 10.3448 16.8636ZM10.3448 12.1971V9.13917H14.4731C14.4341 10.3635 14.1614 11.5531 13.6759 12.6669C12.6024 12.3811 11.4852 12.2239 10.3448 12.1971ZM15.1628 9.13917H19.3017C19.2231 11.031 18.4193 12.7616 17.1269 14.1194C16.2483 13.5948 15.3107 13.1744 14.33 12.8609C14.8386 11.6853 15.1238 10.4305 15.1628 9.13917ZM3.34172 14.5758C4.15759 14.0969 5.02621 13.7118 5.93379 13.4239C6.60448 14.7521 7.56724 15.9625 8.78586 16.9876C6.66483 16.7423 4.76655 15.865 3.34172 14.5758ZM11.2141 16.9876C12.4328 15.9628 13.3955 14.7524 14.0662 13.4239C14.9738 13.7118 15.8421 14.0969 16.6583 14.5758C15.2334 15.865 13.3352 16.7423 11.2141 16.9876Z" fill="white"/>
</svg>
