<svg width="20" height="18" viewBox="0 0 20 18" fill="none" xmlns="http://www.w3.org/2000/svg">
<path d="M19.8779 16.5202L14.0681 11.3875C15.17 10.1856 15.8334 8.65761 15.8334 6.99403C15.8334 3.13754 12.2819 0 7.91666 0C3.55142 0 0 3.13754 0 6.99403C0 10.8505 3.55146 13.9881 7.9167 13.9881C9.79975 13.9881 11.5293 13.402 12.8897 12.4285L18.6996 17.5612C18.8624 17.705 19.1261 17.705 19.2889 17.5612L19.878 17.0408C20.0407 16.897 20.0407 16.6639 19.8779 16.5202ZM7.9167 12.5156C4.47025 12.5156 1.66668 10.0388 1.66668 6.99403C1.66668 3.94925 4.47025 1.47244 7.9167 1.47244C11.3632 1.47244 14.1667 3.94925 14.1667 6.99403C14.1667 10.0388 11.3632 12.5156 7.9167 12.5156Z" fill="white"/>
</svg>
